<?xml version="1.0" encoding="UTF-8"?>
<svg width="245px" height="229px" viewBox="0 0 245 229" version="1.1" xmlns="http://www.w3.org/2000/svg" xmlns:xlink="http://www.w3.org/1999/xlink">
    <title>Muffyn Festival</title>
    <g id="muffyn-logo" fill="#000000">
        <polygon id="letter-m" points="14.7207 199.4598 20.7317 199.4598 29.1207 214.0148 29.3897 214.0148 37.7797 199.4598 43.5217 199.4598 43.5217 228.0778 38.6757 228.0778 38.6757 206.1838 38.4517 206.1838 35.9847 210.8168 29.1207 222.2558 22.2567 210.8168 19.7897 206.1838 19.5657 206.1838 19.5657 228.0778 14.7207 228.0778"></polygon>
        <path d="M65.0137,199.4598 L65.0137,217.0898 C65.0137,221.9278 66.8527,224.4288 71.7427,224.4288 C76.6327,224.4288 78.4717,221.9278 78.4717,217.0898 L78.4717,199.4598 L83.4507,199.4598 L83.4507,216.3518 C83.4507,224.7158 80.3117,228.5698 71.7427,228.5698 C63.1737,228.5698 60.0347,224.7158 60.0347,216.3518 L60.0347,199.4598 L65.0137,199.4598 Z" id="letter-u"></path>
        <polygon id="letter-f" points="99.9648 228.0779 99.9648 199.4599 119.5238 199.4599 119.5238 203.5589 105.0338 203.5589 105.0338 211.5139 117.9088 211.5139 117.9088 215.6139 105.0338 215.6139 105.0338 228.0779"></polygon>
        <polygon id="letter-f" points="134.5103 228.0779 134.5103 199.4599 154.0693 199.4599 154.0693 203.5589 139.5803 203.5589 139.5803 211.5139 152.4553 211.5139 152.4553 215.6139 139.5803 215.6139 139.5803 228.0779"></polygon>
        <polygon id="letter-y" points="176.4575 228.0779 176.4575 216.8029 165.6915 199.4599 171.4785 199.4599 179.1055 212.2109 179.2385 212.2109 186.8205 199.4599 192.3835 199.4599 181.5275 216.7209 181.5275 228.0779"></polygon>
        <polygon id="letter-n" points="214.145 212.2517 210.692 206.1837 210.557 206.1837 210.557 228.0777 205.711 228.0777 205.711 199.4597 211.364 199.4597 221.592 215.2857 225.047 221.3547 225.182 221.3547 225.182 199.4597 230.026 199.4597 230.026 228.0777 224.374 228.0777"></polygon>
        <path d="M212.5806,152.4051 C198.8616,152.4051 187.1226,143.7731 182.5066,131.6561 C177.8776,143.7641 166.1206,152.4051 152.4426,152.4051 C138.7256,152.4051 126.9846,143.7741 122.3696,131.6561 C117.7396,143.7651 105.9826,152.4051 92.3046,152.4051 C78.5866,152.4051 66.8466,143.7731 62.2306,131.6561 C57.6016,143.7641 45.8446,152.4051 32.1666,152.4051 C14.4306,152.4051 -0.0004,137.9751 -0.0004,120.2381 C-0.0004,119.0431 0.9696,118.0731 2.1656,118.0731 C3.3616,118.0731 4.3306,119.0431 4.3306,120.2381 C4.3306,135.5881 16.8186,148.0741 32.1666,148.0741 C47.4116,148.0741 59.8976,135.6721 60.0016,120.4281 C60.0046,120.0061 60.1306,119.5931 60.3656,119.2431 L60.5006,119.0391 C61.0306,118.2431 62.0186,117.8881 62.9306,118.1661 C63.8446,118.4421 64.4696,119.2841 64.4696,120.2381 C64.4696,135.5881 76.9556,148.0741 92.3046,148.0741 C107.5486,148.0741 120.0366,135.6721 120.1406,120.4281 C120.1426,120.0081 120.2686,119.5961 120.5006,119.2461 L120.6366,119.0411 C121.1646,118.2461 122.1526,117.8861 123.0666,118.1661 C123.9806,118.4411 124.6066,119.2831 124.6066,120.2381 C124.6066,135.5881 137.0946,148.0741 152.4426,148.0741 C167.6866,148.0741 180.1746,135.6721 180.2776,120.4281 C180.2806,120.0061 180.4066,119.5931 180.6416,119.2431 L180.7776,119.0391 C181.3066,118.2431 182.2946,117.8881 183.2066,118.1661 C184.1196,118.4421 184.7446,119.2841 184.7446,120.2381 C184.7446,135.5881 197.2316,148.0741 212.5806,148.0741 C227.8246,148.0741 240.3116,135.6721 240.4166,120.4281 C240.4246,119.2381 241.3926,118.2771 242.5806,118.2771 L242.5966,118.2771 C243.7926,118.2861 244.7556,119.2611 244.7466,120.4581 C244.6266,138.0741 230.1966,152.4051 212.5806,152.4051" id="scallop"></path>
        <g id="muffin">
            <path d="M136.7515,53.6585 C134.8155,55.2065 132.3805,56.0985 129.8105,56.0985 C126.9965,56.0985 124.3665,55.0175 122.3715,53.2215 C120.3765,55.0175 117.7465,56.0985 114.9325,56.0985 C112.3675,56.0985 109.9325,55.2085 107.9985,53.6635 C106.0635,55.2085 103.6285,56.0985 101.0635,56.0985 C99.4285,56.0985 97.8565,55.7405 96.4315,55.0875 L101.2255,76.4345 L143.4965,76.4345 L148.3145,55.0725 C146.7845,55.7625 145.1705,56.0985 143.6935,56.0985 C141.1235,56.0985 138.6875,55.2065 136.7515,53.6585" id="muffin-bottom"></path>
            <path d="M158.6587,35.3069 C160.1297,33.9189 161.0487,31.9529 161.0487,29.7709 C161.0487,25.5649 157.6387,22.1569 153.4337,22.1569 C153.1207,22.1569 152.8127,22.1779 152.5097,22.2139 C152.6577,21.6199 152.7377,20.9989 152.7377,20.3599 C152.7377,16.1549 149.3287,12.7449 145.1237,12.7449 C144.6157,12.7449 144.1197,12.7959 143.6387,12.8909 C143.7217,12.4399 143.7677,11.9749 143.7677,11.4999 C143.7677,7.2949 140.3587,3.8859 136.1537,3.8859 C133.5807,3.8859 131.3067,5.1629 129.9297,7.1179 C129.6737,3.1439 126.3707,-0.0001 122.3327,-0.0001 C118.2307,-0.0001 114.8877,3.2439 114.7257,7.3069 C113.3637,5.2459 111.0267,3.8859 108.3717,3.8859 C104.1667,3.8859 100.7577,7.2949 100.7577,11.4999 C100.7577,11.7879 100.7747,12.0719 100.8057,12.3509 C99.7637,11.8149 98.5827,11.5109 97.3297,11.5109 C93.1247,11.5109 89.7157,14.9199 89.7157,19.1249 C89.7157,20.2259 89.9517,21.2709 90.3717,22.2159 C86.6117,22.6799 83.6987,25.8839 83.6987,29.7709 C83.6987,31.9529 84.6177,33.9189 86.0887,35.3069 C84.6177,36.6949 83.6987,38.6609 83.6987,40.8429 C83.6987,45.0479 87.1077,48.4569 91.3127,48.4569 C92.2757,48.4569 93.1957,48.2769 94.0437,47.9509 C95.2007,50.6819 97.9057,52.5989 101.0587,52.5989 C104.1427,52.5989 106.7967,50.7639 107.9937,48.1269 C109.1907,50.7639 111.8447,52.5989 114.9287,52.5989 C118.5747,52.5989 121.6207,50.0359 122.3667,46.6129 C123.1127,50.0359 126.1587,52.5989 129.8047,52.5989 C132.8947,52.5989 135.5537,50.7569 136.7467,48.1119 C137.9397,50.7569 140.5977,52.5989 143.6887,52.5989 C146.8417,52.5989 149.5467,50.6819 150.7037,47.9509 C151.5517,48.2769 152.4717,48.4569 153.4337,48.4569 C157.6387,48.4569 161.0487,45.0479 161.0487,40.8429 C161.0487,38.6609 160.1297,36.6949 158.6587,35.3069" id="muffin-top"></path>
        </g>
    </g>
</svg>
